# xmcd
#
# Track frame offsets: 
#        150
#        14567
#        28457
#        43152
#        58607
#        70592
#        93305
#        110627
#        125512
#        141087
#
# Disc length: 2100 seconds
#
# Revision: 2
# Processed by: cddbd v1.5PL3 Copyright (c) Steve Scherf et al.
# Submitted via: ExactAudioCopy v0.90b4
#
DISCID=9108320a
DTITLE=Ronnie Milsap - Stranger Things Have Happened
DYEAR=1900
DGENRE=Country
TTITLE0=Stranger Things Have Happened
TTITLE1=Don't You Ever Get Tired (Of Hurting Me)
TTITLE2=A Woman In Love
TTITLE3=You Snap Your Fingers (And I'm Back In Your Hands)
TTITLE4=Starting Today
TTITLE5=Roll The Dice
TTITLE6=I Feel Like I'm Cheating On You
TTITLE7=I Never Expected To See You
TTITLE8=Houston Solution
TTITLE9=Southern Roots
EXTD=
EXTT0=
EXTT1=
EXTT2=
EXTT3=
EXTT4=
EXTT5=
EXTT6=
EXTT7=
EXTT8=
EXTT9=
PLAYORDER=
